<?xml version="1.0" encoding="UTF-8"?>
<svg version="1.1" xmlns="http://www.w3.org/2000/svg" width="512" height="512">
<path d="M0 0 C5.20268152 2.32262568 7.8692494 5.81082846 10 11 C10.9778053 15.23814673 11.48860609 19.51007757 12.00547791 23.82574463 C12.25517946 25.75464106 12.25517946 25.75464106 12.50992548 27.72250509 C12.87261965 30.52533867 13.22566141 33.32915936 13.5712043 36.13415861 C14.1305741 40.67483387 14.71091012 45.21269122 15.29378414 49.75040054 C16.12232455 56.21538215 16.94144166 62.68149552 17.75489426 69.14839172 C18.95209114 78.65773186 20.18093281 88.16280403 21.41921997 97.66687012 C21.62213783 99.22528142 21.82504179 100.78369454 22.02793199 102.34210944 C22.1288209 103.11704104 22.22970981 103.89197265 22.33365596 104.69038703 C22.43484276 105.46760886 22.53602956 106.24483069 22.64028263 107.04560471 C22.74173366 107.82465695 22.84318469 108.60370919 22.94771 109.40636908 C24.1126032 118.35527246 25.26815131 127.30538 26.42323303 136.2555542 C26.6399097 137.93423098 26.85658711 139.61290766 27.07326525 141.29158425 C27.4024207 143.84177401 27.73156042 146.39196579 28.06066424 148.9421622 C29.20584654 157.81588617 30.35231557 166.68944379 31.49881267 175.56299797 C33.54112938 191.37018005 35.58252606 207.17748079 37.62329102 222.98486328 C39.59836915 238.2834315 41.57391368 253.58193938 43.55004883 268.88037109 C43.67313813 269.83327946 43.79622743 270.78618782 43.92304672 271.7679722 C44.54093469 276.55139316 45.15883145 281.33481299 45.77673256 286.11823225 C50.85251498 325.41197925 55.92678218 364.7059218 61 404 C62.6107535 397.43403536 64.22063613 390.8678576 65.82997894 384.30154705 C66.37486394 382.0787617 66.91993142 379.85602106 67.46520233 377.63333035 C70.94589441 363.44431281 74.39487258 349.24824924 77.79501057 335.03970873 C79.07059335 329.71518809 80.35351202 324.39243003 81.63550425 319.06944972 C82.70072507 314.64615127 83.76056706 310.2216445 84.8125 305.79516602 C85.87924534 301.30761661 86.9576344 296.82301135 88.04411316 292.34020042 C88.44702349 290.668747 88.84574865 288.99627827 89.23994446 287.32274818 C89.78230795 285.02262365 90.33954098 282.72658421 90.90039062 280.4309082 C91.05417175 279.7627005 91.20795288 279.0944928 91.36639404 278.40603638 C92.72391972 272.96173272 95.39397573 267.41186983 100 264 C105.42787185 262.10964619 110.22646938 261.70775064 115.9453125 261.7253418 C116.81291199 261.72023087 117.68051147 261.71511993 118.57440186 261.70985413 C121.4246726 261.69602398 124.27469982 261.69690965 127.125 261.69921875 C129.11604908 261.69532878 131.10709734 261.69099349 133.09814453 261.68623352 C137.26402481 261.67878588 141.42982031 261.67905245 145.59570312 261.68432617 C150.92531588 261.69012498 156.25458158 261.6731727 161.58413696 261.6499815 C165.69346127 261.63522867 169.80270224 261.63437447 173.91204834 261.63749123 C175.87677702 261.636979 177.84151049 261.63175979 179.80621338 261.62167931 C182.55593257 261.60929945 185.30497854 261.61611538 188.0546875 261.62768555 C188.86008972 261.62004181 189.66549194 261.61239807 190.49530029 261.60452271 C196.27439277 261.65808694 201.25082526 262.57752091 205.7421875 266.53515625 C210.18600567 272.52664903 210.7564467 276.57211368 210 284 C207.72149083 288.64140757 204.34721302 292.81614634 199.3081665 294.59837341 C196.06295306 295.16304845 192.85183261 295.13047484 189.56933594 295.11352539 C188.82748047 295.11367142 188.085625 295.11381744 187.32128906 295.1139679 C184.87562103 295.11327269 182.43002969 295.10549866 179.984375 295.09765625 C178.28615358 295.09579068 176.58793162 295.09436743 174.88970947 295.09336853 C170.42466745 295.08955432 165.95965806 295.07973339 161.49462891 295.06866455 C156.93652793 295.05842687 152.37842167 295.05386586 147.8203125 295.04882812 C138.88019401 295.03811014 129.94009972 295.02104687 121 295 C120.88635605 296.09861862 120.7727121 297.19723724 120.65562439 298.32914734 C119.99732903 303.56158522 118.76517146 308.61695656 117.51000977 313.73364258 C117.2555864 314.78615235 117.00116304 315.83866213 116.73902988 316.92306614 C115.89395559 320.41457099 115.04265205 323.90452639 114.19140625 327.39453125 C113.59080516 329.87137029 112.99062473 332.34831137 112.39083862 334.8253479 C110.95026853 340.77065993 109.5058389 346.71502182 108.05945086 352.65892076 C105.39797025 363.59702033 102.74491269 374.537167 100.0911507 385.47714132 C99.26282235 388.89184393 98.43428233 392.30649488 97.60526085 395.72102928 C93.65469992 411.9929859 89.72668792 428.26994196 85.86455727 444.56315804 C85.22335773 447.26792042 84.58110654 449.9724309 83.93852234 452.67686462 C82.21943052 459.91429796 80.50295506 467.15224239 78.80580139 474.3948555 C78.13454601 477.25160773 77.4562586 480.10665592 76.77603531 482.96128464 C76.33014698 484.84265267 75.89334118 486.72616639 75.45700073 488.60977173 C71.18489712 506.46217024 71.18489712 506.46217024 64 511 C59.7849344 513.1075328 54.57749978 512.51511506 50 512 C44.5154697 509.78325605 42.32567811 506.33163842 40 501 C39.32386838 498.13107028 38.96257977 495.24479488 38.60668945 492.32080078 C38.43340292 491.00717025 38.43340292 491.00717025 38.25661564 489.66700172 C37.86507442 486.67769484 37.48938211 483.68659863 37.11328125 480.6953125 C36.82496747 478.46848542 36.53567516 476.24178486 36.24551392 474.01519775 C35.5159617 468.39683557 34.79678396 462.77720915 34.08165216 457.15699482 C33.21639663 450.36114459 32.33925894 443.56684326 31.46145594 436.77260423 C30.14258937 426.5631263 28.82715582 416.3532115 27.51750183 406.14254761 C23.92732096 378.15558085 20.30276661 350.17312115 16.67053104 322.19158669 C14.19710107 303.13701344 11.72839431 284.08182832 9.26047421 265.02654076 C8.983724 262.88973993 8.70697174 260.75293938 8.43021687 258.61613916 C8.2457194 257.19164429 8.0612255 255.76714896 7.87673519 254.34265317 C6.58136814 244.34107172 5.28429562 234.33971269 3.98617828 224.33848786 C2.28885524 211.26143354 0.59515343 198.18391794 -1.0930748 185.10568619 C-1.92328812 178.67499872 -2.7552068 172.24454333 -3.59150314 165.81464386 C-4.3673046 159.84946413 -5.13837142 153.88369195 -5.90572035 147.9174192 C-6.18633356 145.74215513 -6.46867604 143.56711333 -6.7528919 141.39231706 C-7.13981523 138.42955865 -7.52045861 135.46605783 -7.89955139 132.50228882 C-8.0124636 131.64932763 -8.1253758 130.79636645 -8.24170959 129.91755795 C-8.87525938 124.90085224 -9.10211458 120.05703852 -9 115 C-9.66 115 -10.32 115 -11 115 C-11.03922388 115.55895179 -11.07844776 116.11790358 -11.11886024 116.6937933 C-11.75500778 124.2832188 -13.24597489 131.60411599 -14.84130859 139.04321289 C-15.13655204 140.43872164 -15.43132579 141.83432983 -15.72567177 143.23002815 C-16.52595198 147.01807107 -17.33283068 150.8046812 -18.14089584 154.59106994 C-19.00130215 158.62843685 -19.85549536 162.66711836 -20.71044922 166.7056427 C-22.35738041 174.48034421 -24.00995988 182.25383389 -25.6647861 190.02685839 C-26.99336385 196.26780295 -28.32005194 202.50914626 -29.64532471 208.75079346 C-29.83272976 209.63341339 -30.02013481 210.51603332 -30.21321881 211.4253993 C-30.59180631 213.20849414 -30.97038613 214.99159062 -31.34895825 216.77468872 C-33.79377102 228.28943447 -36.23986464 239.80390654 -38.68978882 251.31756592 C-42.68039993 270.07267561 -46.65829497 288.83031048 -50.61021042 307.59361839 C-51.93294697 313.86962434 -53.26016807 320.14468273 -54.58808327 326.41959476 C-55.57474357 331.08320761 -56.55875664 335.74734254 -57.53631592 340.41287231 C-58.42526398 344.65494253 -59.32167899 348.89535978 -60.22436523 353.13452721 C-60.54200508 354.63283365 -60.85685069 356.13173598 -61.16851807 357.63129616 C-61.58438787 359.63063323 -62.01137493 361.62764836 -62.43896484 363.62451172 C-62.67030121 364.72173553 -62.90163757 365.81895935 -63.13998413 366.94943237 C-64.62734626 372.22526382 -66.7000356 376.61224751 -71.1328125 380.01953125 C-76.19835419 382.67947051 -81.44555086 382.43320714 -86.8125 380.9375 C-95.18347527 375.84926013 -96.99446151 368.16311115 -99.8125 359.25 C-100.2841963 357.79390666 -100.75705654 356.33818996 -101.23095703 354.8828125 C-102.55399667 350.80568374 -103.85843017 346.72281195 -105.15887451 342.63842773 C-106.30857816 339.03205741 -107.46614415 335.42822764 -108.62336731 331.82426453 C-110.87846792 324.80044979 -113.12877136 317.77512077 -115.36987305 310.74682617 C-119.38427539 298.15811777 -123.4205982 285.57674934 -127.484375 273.00390625 C-127.71823032 272.28037334 -127.95208565 271.55684044 -128.1930275 270.81138229 C-130.28944538 264.3260284 -132.38723137 257.84111751 -134.48651123 251.35668945 C-136.9707713 243.68301441 -139.45211716 236.00842028 -141.92590332 228.33135986 C-142.61858752 226.1829682 -143.31242985 224.03494942 -144.00769043 221.88739014 C-144.88179171 219.18539049 -145.75046129 216.48171636 -146.6171875 213.77734375 C-146.8655838 213.01321671 -147.1139801 212.24908966 -147.36990356 211.46180725 C-148.30651627 208.5212785 -149 206.10737947 -149 203 C-149.66 203 -150.32 203 -151 203 C-151.25720573 203.82137703 -151.25720573 203.82137703 -151.51960754 204.65934753 C-153.30984478 210.21985826 -155.44329182 215.49876528 -157.88671875 220.80078125 C-158.26104034 221.62352539 -158.63536194 222.44626953 -159.02102661 223.29394531 C-160.23884272 225.96880203 -161.46282305 228.64077832 -162.6875 231.3125 C-164.40611151 235.0717947 -166.12192971 238.83235417 -167.8359375 242.59375 C-168.26862442 243.54260574 -168.70131134 244.49146149 -169.14710999 245.46907043 C-172.0323236 251.8158522 -174.84049278 258.1920945 -177.6015625 264.59375 C-178.32054671 266.25097012 -179.03969973 267.908117 -179.7590332 269.56518555 C-180.77983928 271.91767043 -181.79526305 274.2717023 -182.79330444 276.63394165 C-183.70885946 278.80006658 -184.64345169 280.95705469 -185.58203125 283.11328125 C-185.84074005 283.74161865 -186.09944885 284.36995605 -186.36599731 285.01733398 C-188.74282108 290.39309389 -191.9473272 293.41311777 -197.15452576 296.11999512 C-200.98141366 297.30351665 -204.66051092 297.28689028 -208.62646484 297.2746582 C-209.48401871 297.27976913 -210.34157257 297.28488007 -211.22511292 297.29014587 C-214.05379255 297.30402086 -216.88222793 297.30308655 -219.7109375 297.30078125 C-221.68242483 297.30466958 -223.65391132 297.30900453 -225.62539673 297.31376648 C-229.75615149 297.32122438 -233.88682078 297.3209407 -238.01757812 297.31567383 C-243.30240971 297.30988251 -248.58689045 297.3268042 -253.87166405 297.3500185 C-257.94324783 297.36477503 -262.01474752 297.36562487 -266.0863533 297.36250877 C-268.03433552 297.36302111 -269.98232256 297.36824234 -271.93027878 297.37832069 C-274.65866404 297.39070371 -277.38637109 297.38388206 -280.11474609 297.37231445 C-280.91393967 297.37995819 -281.71313324 297.38760193 -282.5365448 297.39547729 C-288.29814695 297.34168252 -293.26562221 296.40944052 -297.7421875 292.46484375 C-302.19004725 286.46790181 -302.74638571 282.43231964 -302 275 C-299.67916109 270.09053307 -296.69840347 267.64285195 -292 265 C-288.293243 263.71703022 -284.53597582 263.86619417 -280.66113281 263.88647461 C-279.56297997 263.88625557 -279.56297997 263.88625557 -278.44264221 263.8860321 C-276.02943938 263.88672724 -273.6163143 263.89450092 -271.203125 263.90234375 C-269.52732383 263.90420935 -267.85152212 263.90563258 -266.17572021 263.90663147 C-261.76986174 263.91044548 -257.36403634 263.92026624 -252.95819092 263.93133545 C-248.46041308 263.94157357 -243.96262989 263.94613424 -239.46484375 263.95117188 C-230.64321465 263.9618895 -221.82161008 263.97895253 -213 264 C-212.7383757 263.16978584 -212.7383757 263.16978584 -212.47146606 262.32279968 C-210.73714011 256.95384043 -208.71573324 251.83367737 -206.3671875 246.70703125 C-206.01815872 245.93532593 -205.66912994 245.16362061 -205.30952454 244.36853027 C-204.16863096 241.84804302 -203.02175587 239.3303247 -201.875 236.8125 C-201.06889479 235.03368397 -200.2633209 233.25462707 -199.45825195 231.4753418 C-198.21376784 228.72496305 -196.96900703 225.9747143 -195.72267151 223.22517395 C-191.87023411 214.72512598 -188.05472904 206.20881753 -184.24893188 197.68780518 C-183.19220883 195.32303756 -182.13383374 192.95901618 -181.07495117 190.59521484 C-178.07258373 183.89071668 -175.07571284 177.18415895 -172.11625671 170.46058655 C-170.9227975 167.75047511 -169.72418131 165.0426603 -168.52505493 162.33505249 C-167.71403883 160.49762599 -166.91095951 158.65670263 -166.1081543 156.81567383 C-165.62258057 155.7202124 -165.13700684 154.62475098 -164.63671875 153.49609375 C-164.22123779 152.54919678 -163.80575684 151.6022998 -163.37768555 150.62670898 C-160.59777762 145.32650884 -157.68847977 142.03926633 -152 140 C-147.37934313 139.30858784 -143.38802836 139.47065176 -139.1875 141.625 C-132.32317653 146.73959396 -130.5310517 153.62960442 -128.015625 161.515625 C-127.45674088 163.23003532 -127.45674088 163.23003532 -126.88656616 164.9790802 C-125.87585274 168.08613793 -124.87344955 171.19572216 -123.87494659 174.30672073 C-122.82201006 177.5808401 -121.75867004 180.85157969 -120.69677734 184.12280273 C-118.32097101 191.44922974 -115.96180678 198.78095613 -113.6061554 206.11388397 C-112.65760107 209.06541014 -111.70713012 212.01631878 -110.75683594 214.96728516 C-106.14257964 229.30242092 -101.56093638 243.6478173 -97 258 C-96.67930542 259.00911438 -96.35861084 260.01822876 -96.02819824 261.05792236 C-92.01053293 273.70266551 -88.00108469 286.35000094 -84 299 C-83.67 299 -83.34 299 -83 299 C-82.86788809 298.37237416 -82.73577618 297.74474833 -82.59966087 297.09810352 C-74.63646404 259.26852455 -66.66284618 221.44115377 -58.67541504 183.61668396 C-58.49220105 182.74906703 -58.30898706 181.88145009 -58.12022114 180.98754174 C-57.93672706 180.11859982 -57.75323298 179.24965791 -57.56417847 178.35438442 C-57.38044804 177.48432258 -57.19671761 176.61426075 -57.00741959 175.7178334 C-56.63586697 173.95834845 -56.26430782 172.19886487 -55.89274216 170.43938267 C-53.31805616 158.24716567 -50.74620125 146.05435479 -48.17638469 133.86111057 C-44.86729512 118.16031625 -41.55243006 102.46075821 -38.22824669 86.76315212 C-36.57486018 78.9547033 -34.9242824 71.14568401 -33.28094482 63.33511353 C-31.883663 56.6940332 -30.48082398 50.05415852 -29.07060516 43.41581273 C-28.3526446 40.03529942 -27.63736242 36.65427784 -26.92928696 33.27167892 C-26.16133007 29.61003625 -25.38324533 25.9506902 -24.60253906 22.29174805 C-24.27088525 20.69235115 -24.27088525 20.69235115 -23.93253136 19.0606432 C-22.2800307 11.39550669 -20.72161521 5.65342591 -14 1 C-9.81142223 -1.09428889 -4.56140874 -0.41793012 0 0 Z " fill="#000000" transform="translate(302,0)"/>
</svg>
